<svg width="45" height="31" viewBox="0 0 45 31" fill="none" xmlns="http://www.w3.org/2000/svg">
  <path d="M38.4375 4.89473H32.8125C32.4093 4.89473 32.0513 4.67118 31.9237 4.33673L31.3313 2.79C30.6918 1.12089 28.905 0 26.8837 0H18.1162C16.095 0 14.3081 1.12089 13.6706 2.78839L13.0781 4.33673C12.9488 4.67118 12.5906 4.89473 12.1875 4.89473H6.56253C2.94372 4.89473 0 7.45635 0 10.6053V25.2895C0 28.4384 2.94372 31 6.56253 31H38.4376C42.0563 31 45 28.4384 45 25.2895V10.6053C45 7.45635 42.0563 4.89473 38.4375 4.89473ZM43.125 25.2895C43.125 27.5377 41.0213 29.3684 38.4376 29.3684H6.56253C3.97881 29.3684 1.87506 27.5377 1.87506 25.2895V10.6053C1.87506 8.35699 3.97881 6.52636 6.56253 6.52636H12.1875C13.3988 6.52636 14.4713 5.85417 14.8556 4.85397L15.45 3.30394C15.8325 2.30381 16.9051 1.63155 18.1163 1.63155H26.8838C28.095 1.63155 29.1676 2.30374 29.5519 3.30555L30.1444 4.85389C30.5287 5.85402 31.6013 6.52628 32.8125 6.52628H38.4375C41.0212 6.52628 43.1249 8.35691 43.1249 10.6052V25.2895H43.125Z" fill="white" />
  <path d="M22.5 8.15771C16.2956 8.15771 11.25 12.5483 11.25 17.9472C11.25 23.3461 16.2956 27.7366 22.5 27.7366C28.7044 27.7366 33.75 23.3461 33.75 17.9472C33.75 12.5483 28.7044 8.15771 22.5 8.15771ZM22.5 26.1051C17.3306 26.1051 13.125 22.4454 13.125 17.9472C13.125 13.4489 17.3306 9.78927 22.5 9.78927C27.6694 9.78927 31.875 13.4489 31.875 17.9472C31.875 22.4454 27.6694 26.1051 22.5 26.1051Z" fill="white" />
  <path d="M22.5 11.4214C18.3637 11.4214 15 14.3484 15 17.9477C15 18.398 15.42 18.7635 15.9375 18.7635C16.455 18.7635 16.875 18.398 16.875 17.9477C16.875 15.2491 19.3987 13.0529 22.5 13.0529C23.0175 13.0529 23.4375 12.6874 23.4375 12.2371C23.4375 11.7868 23.0175 11.4214 22.5 11.4214Z" fill="white" />
</svg>
