<svg width="24" height="24" viewBox="0 0 24 24" fill="none" xmlns="http://www.w3.org/2000/svg">
<g filter="url(#filter0_d)">
<path d="M19.6726 2.28584L17.7112 0.326286C17.2754 -0.109022 16.5668 -0.10871 16.1314 0.326911L5.64472 10.819C5.31703 11.1464 5.06678 11.5517 4.92106 11.9913L4.91172 12.0195L4 16L7.9839 15.09L8.01202 15.0807C8.4519 14.9352 8.85758 14.6853 9.18565 14.3576L19.6733 3.86457C19.8841 3.65362 20.0001 3.37322 20 3.07505C19.9998 2.77694 19.8836 2.49664 19.6726 2.28584ZM5.66275 14.3382L6.03512 12.7123L7.29037 13.9664L5.66275 14.3382ZM8.43371 13.3421L6.66053 11.5706L15.3287 2.89791L17.1019 4.6694L8.43371 13.3421ZM17.9854 3.78547L16.2122 2.01398L16.9216 1.30416L18.6948 3.07564L17.9854 3.78547Z" fill="#1B81F6"/>
</g>
<defs>
<filter id="filter0_d" x="0" y="0" width="24" height="24" filterUnits="userSpaceOnUse" color-interpolation-filters="sRGB">
<feFlood flood-opacity="0" result="BackgroundImageFix"/>
<feColorMatrix in="SourceAlpha" type="matrix" values="0 0 0 0 0 0 0 0 0 0 0 0 0 0 0 0 0 0 127 0"/>
<feOffset dy="4"/>
<feGaussianBlur stdDeviation="2"/>
<feColorMatrix type="matrix" values="0 0 0 0 0 0 0 0 0 0 0 0 0 0 0 0 0 0 0.25 0"/>
<feBlend mode="normal" in2="BackgroundImageFix" result="effect1_dropShadow"/>
<feBlend mode="normal" in="SourceGraphic" in2="effect1_dropShadow" result="shape"/>
</filter>
</defs>
</svg>
