<svg width="39" height="35" viewBox="0 0 39 35" fill="none" xmlns="http://www.w3.org/2000/svg">
  <path d="M38.5852 13.5091L20.0986 0.192558C19.7422 -0.064186 19.2579 -0.064186 18.9015 0.192558L0.414799 13.5091C-0.0367469 13.8345 -0.134856 14.4583 0.195805 14.9025C0.526467 15.3467 1.1606 15.4431 1.61207 15.118L19.5 2.2325L37.388 15.1179C37.5683 15.2479 37.778 15.3105 37.9857 15.3105C38.2977 15.3105 38.6056 15.1692 38.8041 14.9024C39.1349 14.4583 39.0368 13.8345 38.5852 13.5091Z" fill="#000000" />
  <path d="M33.6861 15.3435C33.1265 15.3435 32.6728 15.7898 32.6728 16.3404V32.2089H24.5664V23.5469C24.5664 20.7981 22.2933 18.5619 19.4995 18.5619C16.7057 18.5619 14.4326 20.7982 14.4326 23.5469V32.2089H6.32612V16.3405C6.32612 15.7899 5.87237 15.3436 5.31281 15.3436C4.75325 15.3436 4.2995 15.7899 4.2995 16.3405V33.2059C4.2995 33.7565 4.75325 34.2029 5.31281 34.2029H15.4459C15.9788 34.2029 16.4148 33.7978 16.4552 33.2836C16.4577 33.2603 16.4592 33.2348 16.4592 33.2059V23.5469C16.4592 21.8976 17.823 20.5558 19.4995 20.5558C21.176 20.5558 22.5398 21.8977 22.5398 23.5469V33.2059C22.5398 33.2346 22.5413 33.2597 22.5438 33.2827C22.5837 33.7973 23.0199 34.2029 23.5531 34.2029H33.6862C34.2458 34.2029 34.6995 33.7565 34.6995 33.2059V16.3405C34.6994 15.7898 34.2457 15.3435 33.6861 15.3435Z" fill="#000000" />
</svg>
