<svg width="26" height="33" viewBox="0 0 26 33" fill="none" xmlns="http://www.w3.org/2000/svg">
<path d="M25.6388 14.0613L14.0577 3.19324C13.4053 2.58096 12.5947 2.58096 11.9423 3.19324L10.0208 4.99635V2.42954C10.0208 1.09 9.30189 0 8.41818 0H7.324C6.44049 0 5.72142 1.09 5.72142 2.42954V9.03094L0.361214 14.0613C0.00336445 14.397 -0.107323 15.1092 0.114052 15.6522C0.335228 16.1953 0.804558 16.3632 1.16241 16.0276L3.21984 14.0968V30.054H2.96732C2.54659 30.054 2.20561 30.5714 2.20561 31.2099C2.20561 31.8484 2.54659 32.3658 2.96732 32.3658H23.0327C23.4534 32.3658 23.7944 31.8484 23.7944 31.2099C23.7944 30.5714 23.4534 30.054 23.0327 30.054H22.7802V14.0968L24.8376 16.0276C24.9624 16.1447 25.1008 16.2004 25.2375 16.2004C25.4926 16.2004 25.7419 16.0059 25.8859 15.6522C26.1073 15.1092 25.9966 14.397 25.6388 14.0613ZM7.24485 2.42954C7.24485 2.36452 7.28036 2.31184 7.324 2.31184H8.41818C8.46182 2.31184 8.49733 2.36452 8.49733 2.42954V6.4259L7.24485 7.60139V2.42954ZM21.2567 30.054H4.74328V12.667L12.7435 5.15951C12.9016 5.0111 13.0982 5.0111 13.2565 5.15951L21.2567 12.667V30.054Z" fill="#1B81F6"/>
</svg>
