<svg width="22" height="20" viewBox="0 0 22 20" fill="none" xmlns="http://www.w3.org/2000/svg">
  <ellipse cx="11" cy="10" rx="11" ry="10" fill="#13D327" />
  <path d="M10.1888 9.18393V5.69732C10.1888 5.31255 10.5361 5 10.9636 5C11.3911 5 11.7384 5.31255 11.7384 5.69732V9.18393C11.7384 9.5687 11.3911 9.88125 10.9636 9.88125C10.5361 9.88125 10.1888 9.5687 10.1888 9.18393ZM14.0348 6.02247C13.7838 5.8436 13.4176 5.88285 13.2189 6.10912C13.0201 6.33576 13.0633 6.66461 13.3151 6.84385C14.2368 7.49821 14.7652 8.47809 14.7652 9.53277C14.7652 11.4192 13.0596 12.9542 10.964 12.9542C8.86796 12.9542 7.16241 11.4192 7.16241 9.53277C7.16241 8.47846 7.69033 7.49895 8.6112 6.84496C8.86302 6.66609 8.90623 6.33724 8.70748 6.11023C8.50874 5.88359 8.14377 5.84508 7.89112 6.02358C6.68922 6.87718 6 8.15628 6 9.53277C6 11.9962 8.22689 14 10.9636 14C13.7003 14 15.9272 11.9958 15.9272 9.53277C15.9272 8.15554 15.2371 6.87644 14.0348 6.02247Z" fill="white" />
</svg>
