<svg width="4" height="13" viewBox="0 0 4 13" fill="none" xmlns="http://www.w3.org/2000/svg">
<path d="M3.16406 8.50781H1.28906L1.02344 0.625H3.42969L3.16406 8.50781ZM2.22656 9.74219C2.60677 9.74219 2.91146 9.85417 3.14062 10.0781C3.375 10.3021 3.49219 10.5885 3.49219 10.9375C3.49219 11.2812 3.375 11.5651 3.14062 11.7891C2.91146 12.013 2.60677 12.125 2.22656 12.125C1.85156 12.125 1.54688 12.013 1.3125 11.7891C1.08333 11.5651 0.96875 11.2812 0.96875 10.9375C0.96875 10.5938 1.08333 10.3099 1.3125 10.0859C1.54688 9.85677 1.85156 9.74219 2.22656 9.74219Z" fill="#DFE30E"/>
</svg>
